<svg xmlns="http://www.w3.org/2000/svg" xmlns:xlink="http://www.w3.org/1999/xlink" width="10" height="6" version="1.1"><rect id="backgroundrect" width="100%" height="100%" x="0" y="0" fill="none" stroke="none"/>
    <!-- Generator: Sketch 54.1 (76490) - https://sketchapp.com -->
    <title>dropdown</title>
    <desc>Created with Sketch.</desc>
    
<g class="currentLayer" style=""><title>Layer 1</title><g id="Page-1" stroke="none" stroke-width="1" fill="#ffffff" fill-rule="evenodd" class="selected" fill-opacity="1">
        <g id="gifOS_misguifos" fill="#ffffff" fill-opacity="1">
            <g id="nav-bar" fill="#ffffff" fill-opacity="1">
                <g id="dropdown_tema_normal" fill="#ffffff" fill-opacity="1">
                    <g id="dropdown" transform="rotate(-270 4.999999999999999,2.9999999999999996) translate(-150,-18) translate(147,13) " fill="#ffffff" fill-opacity="1">
                        <path d="M9,8 L9,9 L8,9 L8,10 L7,10 L7,11 L6,11 L6,12 L5,12 L5,3 L6,3 L6,4 L7,4 L7,5 L8,5 L8,6 L9,6 L9,7 L10,7 L10,8 L9,8 z" id="back-copy" fill="#ffffff" fill-opacity="1"/>
                        <path d="M6,12 L6,11 L7,11 L7,10 L8,10 L8,9 L9,9 L9,8 L11,8 L11,9 L10,9 L10,10 L9,10 L9,11 L8,11 L8,12 L7,12 L7,13 L6,13 L6,12 z" id="Combined-Shape" fill="#ffffff" fill-opacity="1"/>
                    </g>
                </g>
            </g>
        </g>
    </g></g></svg>